<svg xmlns="http://www.w3.org/2000/svg" xmlns:xlink="http://www.w3.org/1999/xlink" width="500" zoomAndPan="magnify" viewBox="0 0 375 374.999991" height="500" preserveAspectRatio="xMidYMid meet" version="1.2"><defs><clipPath id="15e1bda9b3"><path d="M 304 211 L 316.953125 211 L 316.953125 216 L 304 216 Z M 304 211 "/></clipPath><clipPath id="d584dddbba"><path d="M 58.203125 211 L 274 211 L 274 231 L 58.203125 231 Z M 58.203125 211 "/></clipPath><clipPath id="83da1597e4"><path d="M 100 228 L 316.953125 228 L 316.953125 249 L 100 249 Z M 100 228 "/></clipPath><clipPath id="13b4b25a3d"><path d="M 58.203125 228 L 89 228 L 89 245 L 58.203125 245 Z M 58.203125 228 "/></clipPath><clipPath id="9c11689181"><path d="M 58.203125 246 L 316.953125 246 L 316.953125 254.78125 L 58.203125 254.78125 Z M 58.203125 246 "/></clipPath><clipPath id="3419c10c09"><rect x="0" width="256" y="0" height="59"/></clipPath></defs><g id="fe1a66547a"><g clip-rule="nonzero" clip-path="url(#15e1bda9b3)"><path style=" stroke:none;fill-rule:nonzero;fill:#03989e;fill-opacity:1;" d="M 305.476562 215.011719 C 305.03125 215.011719 304.617188 214.734375 304.460938 214.292969 C 304.265625 213.734375 304.558594 213.121094 305.117188 212.921875 C 308.464844 211.753906 312.015625 211.160156 315.679688 211.160156 C 316.269531 211.160156 316.753906 211.640625 316.753906 212.234375 C 316.753906 212.824219 316.269531 213.308594 315.679688 213.308594 C 312.257812 213.308594 308.945312 213.859375 305.828125 214.953125 C 305.710938 214.992188 305.59375 215.011719 305.476562 215.011719 Z M 305.476562 215.011719 "/></g><path style=" stroke:none;fill-rule:nonzero;fill:#03989e;fill-opacity:1;" d="M 281.386719 229.582031 C 280.917969 229.582031 280.488281 229.273438 280.355469 228.796875 C 280.195312 228.226562 280.527344 227.632812 281.097656 227.472656 C 284.667969 226.472656 287.832031 224.859375 290.5 222.675781 L 294.214844 219.636719 C 294.675781 219.261719 295.351562 219.328125 295.726562 219.789062 C 296.101562 220.246094 296.035156 220.925781 295.578125 221.300781 L 291.863281 224.339844 C 288.960938 226.710938 285.535156 228.460938 281.679688 229.542969 C 281.582031 229.570312 281.484375 229.582031 281.386719 229.582031 Z M 281.386719 229.582031 "/><g clip-rule="nonzero" clip-path="url(#d584dddbba)"><path style=" stroke:none;fill-rule:nonzero;fill:#03989e;fill-opacity:1;" d="M 102.042969 230.738281 C 95.195312 230.738281 88.347656 228.605469 83.132812 224.339844 L 76.867188 219.21875 C 72.207031 215.40625 65.972656 213.308594 59.316406 213.308594 C 58.722656 213.308594 58.242188 212.824219 58.242188 212.234375 C 58.242188 211.640625 58.722656 211.160156 59.316406 211.160156 C 66.46875 211.160156 73.183594 213.429688 78.226562 217.554688 L 84.496094 222.675781 C 94.171875 230.59375 109.914062 230.59375 119.589844 222.675781 L 125.859375 217.554688 C 136.285156 209.019531 153.253906 209.019531 163.6875 217.554688 L 169.945312 222.675781 C 179.625 230.589844 195.371094 230.585938 205.050781 222.675781 L 211.3125 217.554688 C 221.738281 209.023438 238.707031 209.023438 249.136719 217.554688 L 255.398438 222.675781 C 259.820312 226.292969 265.730469 228.386719 272.042969 228.570312 C 272.636719 228.589844 273.101562 229.082031 273.085938 229.675781 C 273.070312 230.269531 272.574219 230.761719 271.980469 230.71875 C 265.199219 230.519531 258.824219 228.253906 254.039062 224.339844 L 247.777344 219.21875 C 238.097656 211.300781 222.351562 211.300781 212.671875 219.21875 L 206.410156 224.339844 C 195.984375 232.867188 179.015625 232.867188 168.585938 224.339844 L 162.324219 219.21875 C 152.640625 211.296875 136.894531 211.296875 127.21875 219.21875 L 120.953125 224.339844 C 115.738281 228.605469 108.890625 230.738281 102.042969 230.738281 Z M 102.042969 230.738281 "/></g><g clip-rule="nonzero" clip-path="url(#83da1597e4)"><path style=" stroke:none;fill-rule:nonzero;fill:#03989e;fill-opacity:1;" d="M 272.949219 248.160156 C 266.101562 248.160156 259.25 246.027344 254.039062 241.765625 L 247.777344 236.644531 C 238.097656 228.726562 222.351562 228.726562 212.671875 236.644531 L 206.410156 241.765625 C 195.984375 250.289062 179.015625 250.289062 168.585938 241.765625 L 162.324219 236.644531 C 152.640625 228.722656 136.894531 228.722656 127.21875 236.644531 L 120.953125 241.765625 C 115.777344 245.996094 108.878906 248.277344 101.539062 248.152344 C 100.945312 248.144531 100.472656 247.65625 100.480469 247.0625 C 100.488281 246.476562 100.96875 246.003906 101.554688 246.003906 C 101.558594 246.003906 101.566406 246.003906 101.570312 246.003906 C 108.417969 246.132812 114.808594 244.015625 119.589844 240.101562 L 125.859375 234.980469 C 136.28125 226.445312 153.25 226.445312 163.683594 234.980469 L 169.945312 240.101562 C 179.621094 248.015625 195.371094 248.015625 205.050781 240.101562 L 211.308594 234.980469 C 221.738281 226.449219 238.707031 226.449219 249.136719 234.980469 L 255.394531 240.101562 C 265.074219 248.015625 280.824219 248.011719 290.5 240.101562 L 296.769531 234.972656 C 301.816406 230.851562 308.53125 228.582031 315.679688 228.582031 C 316.269531 228.582031 316.753906 229.066406 316.753906 229.660156 C 316.753906 230.25 316.269531 230.734375 315.679688 230.734375 C 309.023438 230.734375 302.792969 232.828125 298.128906 236.636719 L 291.863281 241.765625 C 286.648438 246.027344 279.796875 248.160156 272.949219 248.160156 Z M 272.949219 248.160156 "/></g><g clip-rule="nonzero" clip-path="url(#13b4b25a3d)"><path style=" stroke:none;fill-rule:nonzero;fill:#03989e;fill-opacity:1;" d="M 87.847656 244.699219 C 87.675781 244.699219 87.5 244.65625 87.335938 244.570312 C 85.832031 243.761719 84.417969 242.816406 83.132812 241.765625 L 76.867188 236.644531 C 72.207031 232.832031 65.972656 230.730469 59.316406 230.730469 C 58.722656 230.730469 58.242188 230.25 58.242188 229.65625 C 58.242188 229.0625 58.722656 228.582031 59.316406 228.582031 C 66.46875 228.582031 73.183594 230.855469 78.226562 234.980469 L 84.492188 240.101562 C 85.671875 241.066406 86.972656 241.933594 88.355469 242.679688 C 88.878906 242.960938 89.074219 243.609375 88.792969 244.132812 C 88.597656 244.492188 88.226562 244.699219 87.847656 244.699219 Z M 87.847656 244.699219 "/></g><g clip-rule="nonzero" clip-path="url(#9c11689181)"><path style=" stroke:none;fill-rule:nonzero;fill:#03989e;fill-opacity:1;" d="M 102.042969 265.585938 C 95.195312 265.585938 88.347656 263.453125 83.136719 259.191406 L 76.867188 254.070312 C 72.207031 250.257812 65.976562 248.15625 59.316406 248.15625 C 58.726562 248.15625 58.242188 247.675781 58.242188 247.082031 C 58.242188 246.488281 58.726562 246.007812 59.316406 246.007812 C 66.46875 246.007812 73.183594 248.28125 78.226562 252.40625 L 84.496094 257.527344 C 94.171875 265.441406 109.914062 265.441406 119.59375 257.527344 L 125.859375 252.40625 C 136.285156 243.871094 153.253906 243.871094 163.6875 252.40625 L 169.945312 257.527344 C 179.625 265.4375 195.371094 265.4375 205.050781 257.527344 L 211.3125 252.40625 C 221.742188 243.871094 238.707031 243.875 249.136719 252.40625 L 255.398438 257.527344 C 265.078125 265.4375 280.824219 265.4375 290.503906 257.527344 L 296.773438 252.398438 C 301.816406 248.277344 308.53125 246.007812 315.679688 246.007812 C 316.273438 246.007812 316.753906 246.488281 316.753906 247.082031 C 316.753906 247.675781 316.273438 248.15625 315.679688 248.15625 C 309.027344 248.15625 302.792969 250.253906 298.132812 254.0625 L 291.863281 259.191406 C 281.4375 267.714844 264.46875 267.714844 254.039062 259.191406 L 247.777344 254.070312 C 238.097656 246.148438 222.351562 246.148438 212.671875 254.070312 L 206.410156 259.191406 C 195.984375 267.714844 179.015625 267.714844 168.585938 259.191406 L 162.324219 254.070312 C 152.640625 246.148438 136.894531 246.148438 127.222656 254.070312 L 120.953125 259.191406 C 115.738281 263.453125 108.890625 265.585938 102.042969 265.585938 Z M 102.042969 265.585938 "/></g><g transform="matrix(1,0,0,1,62,158)"><g clip-path="url(#3419c10c09)"><g style="fill:#03989e;fill-opacity:1;"><g transform="translate(1.007598, 42.217912)"><path style="stroke:none" d="M 7.28125 -0.296875 L 15.28125 -0.296875 L 15.28125 0 L 7.28125 0 C 6.289062 0 5.382812 -0.238281 4.5625 -0.71875 C 3.75 -1.207031 3.097656 -1.859375 2.609375 -2.671875 C 2.117188 -3.484375 1.875 -4.382812 1.875 -5.375 L 1.875 -20.953125 C 2.882812 -20.953125 3.789062 -20.707031 4.59375 -20.21875 C 5.40625 -19.738281 6.054688 -19.09375 6.546875 -18.28125 C 7.035156 -17.46875 7.28125 -16.566406 7.28125 -15.578125 Z M 7.28125 -0.296875 "/></g></g><g style="fill:#03989e;fill-opacity:1;"><g transform="translate(21.31561, 42.217912)"><path style="stroke:none" d="M 1.875 -20.953125 C 2.882812 -20.953125 3.789062 -20.707031 4.59375 -20.21875 C 5.40625 -19.738281 6.054688 -19.09375 6.546875 -18.28125 C 7.035156 -17.46875 7.28125 -16.566406 7.28125 -15.578125 L 7.28125 0 C 6.289062 0 5.382812 -0.238281 4.5625 -0.71875 C 3.75 -1.207031 3.097656 -1.859375 2.609375 -2.671875 C 2.117188 -3.484375 1.875 -4.382812 1.875 -5.375 Z M 1.875 -20.953125 "/></g></g><g style="fill:#03989e;fill-opacity:1;"><g transform="translate(34.900722, 42.217912)"><path style="stroke:none" d="M 16.71875 -6.671875 C 16.71875 -5.328125 16.390625 -4.148438 15.734375 -3.140625 C 15.078125 -2.140625 14.164062 -1.363281 13 -0.8125 C 11.84375 -0.269531 10.507812 0 9 0 C 7.375 0 5.953125 -0.265625 4.734375 -0.796875 C 3.523438 -1.328125 2.582031 -2.066406 1.90625 -3.015625 C 1.238281 -3.972656 0.90625 -5.085938 0.90625 -6.359375 L 1.203125 -6.359375 C 1.203125 -5.160156 1.515625 -4.109375 2.140625 -3.203125 C 2.765625 -2.304688 3.644531 -1.601562 4.78125 -1.09375 C 5.914062 -0.59375 7.242188 -0.34375 8.765625 -0.34375 C 10.140625 -0.34375 11.25 -0.617188 12.09375 -1.171875 C 12.945312 -1.722656 13.375 -2.53125 13.375 -3.59375 C 13.375 -4.351562 13.144531 -4.976562 12.6875 -5.46875 C 12.238281 -5.96875 11.640625 -6.394531 10.890625 -6.75 C 10.148438 -7.101562 9.335938 -7.429688 8.453125 -7.734375 C 7.566406 -8.046875 6.675781 -8.382812 5.78125 -8.75 C 4.894531 -9.113281 4.078125 -9.550781 3.328125 -10.0625 C 2.585938 -10.582031 1.988281 -11.226562 1.53125 -12 C 1.082031 -12.78125 0.859375 -13.742188 0.859375 -14.890625 C 0.859375 -16.203125 1.171875 -17.359375 1.796875 -18.359375 C 2.421875 -19.367188 3.289062 -20.15625 4.40625 -20.71875 C 5.53125 -21.28125 6.828125 -21.5625 8.296875 -21.5625 C 9.671875 -21.5625 10.875 -21.320312 11.90625 -20.84375 C 12.945312 -20.363281 13.753906 -19.691406 14.328125 -18.828125 C 14.910156 -17.960938 15.203125 -16.957031 15.203125 -15.8125 L 14.90625 -15.8125 C 14.90625 -16.894531 14.640625 -17.835938 14.109375 -18.640625 C 13.578125 -19.441406 12.835938 -20.066406 11.890625 -20.515625 C 10.953125 -20.960938 9.851562 -21.1875 8.59375 -21.1875 C 7.21875 -21.1875 6.140625 -20.910156 5.359375 -20.359375 C 4.585938 -19.816406 4.203125 -19.066406 4.203125 -18.109375 C 4.203125 -17.398438 4.425781 -16.800781 4.875 -16.3125 C 5.332031 -15.820312 5.929688 -15.398438 6.671875 -15.046875 C 7.421875 -14.691406 8.238281 -14.347656 9.125 -14.015625 C 10.007812 -13.679688 10.894531 -13.320312 11.78125 -12.9375 C 12.675781 -12.550781 13.492188 -12.085938 14.234375 -11.546875 C 14.972656 -11.003906 15.570312 -10.34375 16.03125 -9.5625 C 16.488281 -8.78125 16.71875 -7.816406 16.71875 -6.671875 Z M 16.71875 -6.671875 "/></g></g><g style="fill:#03989e;fill-opacity:1;"><g transform="translate(56.924231, 42.217912)"><path style="stroke:none" d="M 7.28125 -0.296875 L 15.203125 -0.296875 L 15.203125 0 L 7.28125 0 C 6.289062 0 5.382812 -0.238281 4.5625 -0.71875 C 3.75 -1.207031 3.097656 -1.859375 2.609375 -2.671875 C 2.117188 -3.484375 1.875 -4.382812 1.875 -5.375 L 1.875 -20.953125 L 15.203125 -20.953125 L 15.203125 -20.65625 L 7.28125 -20.65625 L 7.28125 -10.78125 L 14.328125 -10.78125 L 14.328125 -10.484375 L 7.28125 -10.484375 Z M 7.28125 -0.296875 "/></g></g><g style="fill:#03989e;fill-opacity:1;"><g transform="translate(77.695889, 42.217912)"><path style="stroke:none" d="M 7.28125 -9.96875 C 6.675781 -9.96875 6.09375 -9.804688 5.53125 -9.484375 C 4.976562 -9.160156 4.554688 -8.671875 4.265625 -8.015625 L 0.65625 0 L 0.296875 0 L 9.953125 -21.265625 L 19.984375 0 C 18.796875 0 17.648438 -0.210938 16.546875 -0.640625 C 15.453125 -1.078125 14.472656 -1.695312 13.609375 -2.5 C 12.753906 -3.300781 12.070312 -4.242188 11.5625 -5.328125 L 10.296875 -8.0625 C 10.003906 -8.695312 9.578125 -9.171875 9.015625 -9.484375 C 8.460938 -9.804688 7.882812 -9.96875 7.28125 -9.96875 Z M 7.28125 -9.96875 "/></g></g><g style="fill:#03989e;fill-opacity:1;"><g transform="translate(102.454923, 42.217912)"><path style="stroke:none" d="M 18.546875 -21.078125 L 18.84375 -21.078125 L 18.84375 0.1875 L 2.171875 -20.71875 L 2.171875 -0.109375 L 1.875 -0.109375 L 1.875 -21.078125 L 6 -21.078125 C 6.820312 -21.078125 7.609375 -20.894531 8.359375 -20.53125 C 9.109375 -20.164062 9.738281 -19.664062 10.25 -19.03125 L 18.546875 -8.53125 Z M 18.546875 -21.078125 "/></g></g><g style="fill:#03989e;fill-opacity:1;"><g transform="translate(127.631234, 42.217912)"><path style="stroke:none" d="M 16.71875 -6.671875 C 16.71875 -5.328125 16.390625 -4.148438 15.734375 -3.140625 C 15.078125 -2.140625 14.164062 -1.363281 13 -0.8125 C 11.84375 -0.269531 10.507812 0 9 0 C 7.375 0 5.953125 -0.265625 4.734375 -0.796875 C 3.523438 -1.328125 2.582031 -2.066406 1.90625 -3.015625 C 1.238281 -3.972656 0.90625 -5.085938 0.90625 -6.359375 L 1.203125 -6.359375 C 1.203125 -5.160156 1.515625 -4.109375 2.140625 -3.203125 C 2.765625 -2.304688 3.644531 -1.601562 4.78125 -1.09375 C 5.914062 -0.59375 7.242188 -0.34375 8.765625 -0.34375 C 10.140625 -0.34375 11.25 -0.617188 12.09375 -1.171875 C 12.945312 -1.722656 13.375 -2.53125 13.375 -3.59375 C 13.375 -4.351562 13.144531 -4.976562 12.6875 -5.46875 C 12.238281 -5.96875 11.640625 -6.394531 10.890625 -6.75 C 10.148438 -7.101562 9.335938 -7.429688 8.453125 -7.734375 C 7.566406 -8.046875 6.675781 -8.382812 5.78125 -8.75 C 4.894531 -9.113281 4.078125 -9.550781 3.328125 -10.0625 C 2.585938 -10.582031 1.988281 -11.226562 1.53125 -12 C 1.082031 -12.78125 0.859375 -13.742188 0.859375 -14.890625 C 0.859375 -16.203125 1.171875 -17.359375 1.796875 -18.359375 C 2.421875 -19.367188 3.289062 -20.15625 4.40625 -20.71875 C 5.53125 -21.28125 6.828125 -21.5625 8.296875 -21.5625 C 9.671875 -21.5625 10.875 -21.320312 11.90625 -20.84375 C 12.945312 -20.363281 13.753906 -19.691406 14.328125 -18.828125 C 14.910156 -17.960938 15.203125 -16.957031 15.203125 -15.8125 L 14.90625 -15.8125 C 14.90625 -16.894531 14.640625 -17.835938 14.109375 -18.640625 C 13.578125 -19.441406 12.835938 -20.066406 11.890625 -20.515625 C 10.953125 -20.960938 9.851562 -21.1875 8.59375 -21.1875 C 7.21875 -21.1875 6.140625 -20.910156 5.359375 -20.359375 C 4.585938 -19.816406 4.203125 -19.066406 4.203125 -18.109375 C 4.203125 -17.398438 4.425781 -16.800781 4.875 -16.3125 C 5.332031 -15.820312 5.929688 -15.398438 6.671875 -15.046875 C 7.421875 -14.691406 8.238281 -14.347656 9.125 -14.015625 C 10.007812 -13.679688 10.894531 -13.320312 11.78125 -12.9375 C 12.675781 -12.550781 13.492188 -12.085938 14.234375 -11.546875 C 14.972656 -11.003906 15.570312 -10.34375 16.03125 -9.5625 C 16.488281 -8.78125 16.71875 -7.816406 16.71875 -6.671875 Z M 16.71875 -6.671875 "/></g></g><g style="fill:#03989e;fill-opacity:1;"><g transform="translate(149.654743, 42.217912)"><path style="stroke:none" d="M 20.046875 -20.953125 L 13.03125 -9.953125 L 13.03125 0 C 12.039062 0 11.140625 -0.238281 10.328125 -0.71875 C 9.515625 -1.207031 8.863281 -1.859375 8.375 -2.671875 C 7.894531 -3.484375 7.65625 -4.382812 7.65625 -5.375 L 7.65625 -9.4375 L 0.296875 -20.953125 L 3.484375 -20.953125 C 4.441406 -20.953125 5.335938 -20.710938 6.171875 -20.234375 C 7.015625 -19.753906 7.675781 -19.097656 8.15625 -18.265625 L 12.78125 -10.265625 L 19.59375 -20.953125 Z M 20.046875 -20.953125 "/></g></g><g style="fill:#03989e;fill-opacity:1;"><g transform="translate(174.460151, 42.217912)"><path style="stroke:none" d="M 7.28125 -9.96875 C 6.675781 -9.96875 6.09375 -9.804688 5.53125 -9.484375 C 4.976562 -9.160156 4.554688 -8.671875 4.265625 -8.015625 L 0.65625 0 L 0.296875 0 L 9.953125 -21.265625 L 19.984375 0 C 18.796875 0 17.648438 -0.210938 16.546875 -0.640625 C 15.453125 -1.078125 14.472656 -1.695312 13.609375 -2.5 C 12.753906 -3.300781 12.070312 -4.242188 11.5625 -5.328125 L 10.296875 -8.0625 C 10.003906 -8.695312 9.578125 -9.171875 9.015625 -9.484375 C 8.460938 -9.804688 7.882812 -9.96875 7.28125 -9.96875 Z M 7.28125 -9.96875 "/></g></g><g style="fill:#03989e;fill-opacity:1;"><g transform="translate(199.219179, 42.217912)"><path style="stroke:none" d="M 22.140625 -10.484375 C 22.140625 -8.859375 21.8125 -7.398438 21.15625 -6.109375 C 20.507812 -4.816406 19.609375 -3.710938 18.453125 -2.796875 C 17.296875 -1.890625 15.929688 -1.195312 14.359375 -0.71875 C 12.796875 -0.238281 11.085938 0 9.234375 0 L 7.28125 0 C 6.289062 0 5.382812 -0.238281 4.5625 -0.71875 C 3.75 -1.207031 3.097656 -1.859375 2.609375 -2.671875 C 2.117188 -3.484375 1.875 -4.382812 1.875 -5.375 L 1.875 -20.953125 L 9.234375 -20.953125 C 11.085938 -20.953125 12.796875 -20.710938 14.359375 -20.234375 C 15.929688 -19.753906 17.296875 -19.054688 18.453125 -18.140625 C 19.609375 -17.234375 20.507812 -16.132812 21.15625 -14.84375 C 21.8125 -13.550781 22.140625 -12.097656 22.140625 -10.484375 Z M 7.28125 -20.65625 L 7.28125 -0.296875 L 9.234375 -0.296875 C 11.609375 -0.296875 13.351562 -1.175781 14.46875 -2.9375 C 15.582031 -4.707031 16.140625 -7.222656 16.140625 -10.484375 C 16.140625 -13.753906 15.582031 -16.265625 14.46875 -18.015625 C 13.351562 -19.773438 11.609375 -20.65625 9.234375 -20.65625 Z M 7.28125 -20.65625 "/></g></g><g style="fill:#03989e;fill-opacity:1;"><g transform="translate(226.621013, 42.217912)"><path style="stroke:none" d="M 22.53125 -10.78125 C 22.53125 -9.15625 22.222656 -7.679688 21.609375 -6.359375 C 20.992188 -5.035156 20.160156 -3.898438 19.109375 -2.953125 C 18.066406 -2.003906 16.898438 -1.273438 15.609375 -0.765625 C 14.316406 -0.253906 13 0 11.65625 0 C 10.3125 0 8.992188 -0.253906 7.703125 -0.765625 C 6.410156 -1.273438 5.242188 -2.003906 4.203125 -2.953125 C 3.160156 -3.898438 2.328125 -5.035156 1.703125 -6.359375 C 1.085938 -7.679688 0.78125 -9.15625 0.78125 -10.78125 C 0.78125 -12.40625 1.085938 -13.875 1.703125 -15.1875 C 2.328125 -16.507812 3.160156 -17.644531 4.203125 -18.59375 C 5.242188 -19.550781 6.410156 -20.285156 7.703125 -20.796875 C 8.992188 -21.304688 10.3125 -21.5625 11.65625 -21.5625 C 13 -21.5625 14.316406 -21.304688 15.609375 -20.796875 C 16.898438 -20.285156 18.066406 -19.550781 19.109375 -18.59375 C 20.160156 -17.644531 20.992188 -16.507812 21.609375 -15.1875 C 22.222656 -13.875 22.53125 -12.40625 22.53125 -10.78125 Z M 6.796875 -10.78125 C 6.796875 -7.207031 7.164062 -4.566406 7.90625 -2.859375 C 8.644531 -1.148438 9.894531 -0.296875 11.65625 -0.296875 C 13.4375 -0.296875 14.695312 -1.148438 15.4375 -2.859375 C 16.175781 -4.566406 16.546875 -7.207031 16.546875 -10.78125 C 16.546875 -14.332031 16.175781 -16.96875 15.4375 -18.6875 C 14.695312 -20.40625 13.4375 -21.265625 11.65625 -21.265625 C 9.894531 -21.265625 8.644531 -20.40625 7.90625 -18.6875 C 7.164062 -16.96875 6.796875 -14.332031 6.796875 -10.78125 Z M 6.796875 -10.78125 "/></g></g></g></g></g></svg>